<?xml version="1.0" encoding="UTF-8"?><svg id="Layer_2" xmlns="http://www.w3.org/2000/svg" width="32" height="32" viewBox="0 0 32 32"><defs><style>.cls-1{fill:#80f5d2;}.cls-2{fill:#09161d;fill-rule:evenodd;}</style></defs><g id="Layer_1-2"><g><path class="cls-1" d="M0,12.60309C0,8.1916,0,5.98583,.85853,4.30087c.75519-1.48214,1.96021-2.68715,3.44234-3.44234,1.68495-.85853,3.89073-.85853,8.30221-.85853h6.79383c4.41149,0,6.61726,0,8.30223,.85853,1.48211,.75519,2.68714,1.96021,3.44234,3.44234,.85851,1.68495,.85851,3.89073,.85851,8.30221v6.79383c0,4.41149,0,6.61726-.85851,8.30223-.7552,1.48211-1.96023,2.68714-3.44234,3.44234-1.68497,.85851-3.89074,.85851-8.30223,.85851h-6.79383c-4.41149,0-6.61726,0-8.30221-.85851-1.48214-.7552-2.68715-1.96023-3.44234-3.44234-.85853-1.68497-.85853-3.89074-.85853-8.30223v-6.79383Z"/><path class="cls-2" d="M9.45606,17.28463c0-2.24023,0-3.36029,.436-4.21594,.38349-.75269,.99537-1.36457,1.74806-1.74806,.85566-.436,1.97571-.436,4.21594-.436h3.2c2.24023,0,3.36034,0,4.21594,.436,.75269,.38349,1.36457,.99537,1.74811,1.74806,.43594,.85566,.43594,1.97571,.43594,4.21594v.91429c0,2.24023,0,3.36034-.43594,4.21594-.38354,.75269-.99543,1.36457-1.74811,1.74811-.8556,.43594-1.97571,.43594-4.21594,.43594h-5.94286c-1.28011,0-1.92017,0-2.40908-.24914-.43011-.21914-.77977-.5688-.99891-.99886-.24914-.48897-.24914-1.12903-.24914-2.40914v-3.65714Zm5.71429,.45714c0-.6312,.51166-1.14286,1.14286-1.14286s1.14286,.51166,1.14286,1.14286v2.28571c0,.6312-.51166,1.14286-1.14286,1.14286s-1.14286-.51166-1.14286-1.14286v-2.28571Zm5.71429-1.14286c-.6312,0-1.14286,.51166-1.14286,1.14286v2.28571c0,.6312,.51166,1.14286,1.14286,1.14286s1.14286-.51166,1.14286-1.14286v-2.28571c0-.6312-.51166-1.14286-1.14286-1.14286Z"/><path class="cls-2" d="M13.44731,7.43051c.07789,.62634-.36669,1.19726-.99309,1.27514-.34526,.04297-.62263,.10137-.86817,.17789-1.97217,.61457-3.51651,2.15891-4.13109,4.13109-.07651,.24554-.13491,.52291-.17789,.86817-.07789,.6264-.6488,1.07097-1.27514,.99309-.62636-.07789-1.07098-.6488-.99309-1.27514,.05594-.44983,.13874-.86451,.26389-1.26611,.83806-2.68937,2.94394-4.79526,5.63331-5.63331,.4016-.12514,.81629-.20794,1.26611-.26389,.62634-.07789,1.19726,.36674,1.27514,.99309Z"/></g></g></svg>